<mxfile host="app.diagrams.net" agent="Mozilla/5.0 (Windows NT 10.0; Win64; x64) AppleWebKit/537.36 (KHTML, like Gecko) Chrome/134.0.0.0 Safari/537.36" version="26.2.6">
  <diagram name="Página-1" id="NbkEkqcIhrgJThGbbjZc">
    <mxGraphModel grid="1" page="1" gridSize="10" guides="1" tooltips="1" connect="1" arrows="1" fold="1" pageScale="1" pageWidth="2339" pageHeight="3300" math="0" shadow="0">
      <root>
        <mxCell id="0" />
        <mxCell id="1" parent="0" />
        <mxCell id="mWL99UG54gA_ehm_smPu-10" style="edgeStyle=orthogonalEdgeStyle;rounded=0;orthogonalLoop=1;jettySize=auto;html=1;entryX=0.5;entryY=0;entryDx=0;entryDy=0;" edge="1" parent="1" source="mWL99UG54gA_ehm_smPu-1" target="mWL99UG54gA_ehm_smPu-4">
          <mxGeometry relative="1" as="geometry" />
        </mxCell>
        <mxCell id="mWL99UG54gA_ehm_smPu-24" style="edgeStyle=orthogonalEdgeStyle;rounded=0;orthogonalLoop=1;jettySize=auto;html=1;entryX=0.5;entryY=0;entryDx=0;entryDy=0;" edge="1" parent="1" source="mWL99UG54gA_ehm_smPu-1" target="mWL99UG54gA_ehm_smPu-3">
          <mxGeometry relative="1" as="geometry" />
        </mxCell>
        <mxCell id="mWL99UG54gA_ehm_smPu-1" value="&lt;font style=&quot;font-size: 14px;&quot;&gt;Reforma Quarto&amp;nbsp;&lt;/font&gt;" style="rounded=0;whiteSpace=wrap;html=1;" vertex="1" parent="1">
          <mxGeometry x="1080" y="80" width="120" height="60" as="geometry" />
        </mxCell>
        <mxCell id="mWL99UG54gA_ehm_smPu-37" style="edgeStyle=orthogonalEdgeStyle;rounded=0;orthogonalLoop=1;jettySize=auto;html=1;" edge="1" parent="1" source="mWL99UG54gA_ehm_smPu-2" target="mWL99UG54gA_ehm_smPu-38">
          <mxGeometry relative="1" as="geometry">
            <mxPoint x="1579.9999999999995" y="349.9999999999998" as="targetPoint" />
          </mxGeometry>
        </mxCell>
        <mxCell id="mWL99UG54gA_ehm_smPu-2" value="&lt;font style=&quot;font-size: 14px;&quot;&gt;Piso&lt;/font&gt;" style="rounded=0;whiteSpace=wrap;html=1;" vertex="1" parent="1">
          <mxGeometry x="1520" y="230" width="120" height="60" as="geometry" />
        </mxCell>
        <mxCell id="mWL99UG54gA_ehm_smPu-32" style="edgeStyle=orthogonalEdgeStyle;rounded=0;orthogonalLoop=1;jettySize=auto;html=1;" edge="1" parent="1" source="mWL99UG54gA_ehm_smPu-3" target="mWL99UG54gA_ehm_smPu-33">
          <mxGeometry relative="1" as="geometry">
            <mxPoint x="1140" y="310" as="targetPoint" />
          </mxGeometry>
        </mxCell>
        <mxCell id="mWL99UG54gA_ehm_smPu-34" style="edgeStyle=orthogonalEdgeStyle;rounded=0;orthogonalLoop=1;jettySize=auto;html=1;" edge="1" parent="1" source="mWL99UG54gA_ehm_smPu-3" target="mWL99UG54gA_ehm_smPu-35">
          <mxGeometry relative="1" as="geometry">
            <mxPoint x="1290" y="349.9999999999998" as="targetPoint" />
          </mxGeometry>
        </mxCell>
        <mxCell id="mWL99UG54gA_ehm_smPu-3" value="&lt;font style=&quot;font-size: 14px;&quot;&gt;Teto&lt;/font&gt;" style="rounded=0;whiteSpace=wrap;html=1;" vertex="1" parent="1">
          <mxGeometry x="1080" y="210" width="120" height="60" as="geometry" />
        </mxCell>
        <mxCell id="mWL99UG54gA_ehm_smPu-15" style="edgeStyle=orthogonalEdgeStyle;rounded=0;orthogonalLoop=1;jettySize=auto;html=1;" edge="1" parent="1" source="mWL99UG54gA_ehm_smPu-4">
          <mxGeometry relative="1" as="geometry">
            <mxPoint x="420" y="350" as="targetPoint" />
          </mxGeometry>
        </mxCell>
        <mxCell id="mWL99UG54gA_ehm_smPu-17" style="edgeStyle=orthogonalEdgeStyle;rounded=0;orthogonalLoop=1;jettySize=auto;html=1;" edge="1" parent="1" source="mWL99UG54gA_ehm_smPu-4">
          <mxGeometry relative="1" as="geometry">
            <mxPoint x="560" y="350" as="targetPoint" />
          </mxGeometry>
        </mxCell>
        <mxCell id="mWL99UG54gA_ehm_smPu-28" style="edgeStyle=orthogonalEdgeStyle;rounded=0;orthogonalLoop=1;jettySize=auto;html=1;entryX=0.5;entryY=0;entryDx=0;entryDy=0;" edge="1" parent="1" source="mWL99UG54gA_ehm_smPu-4" target="mWL99UG54gA_ehm_smPu-20">
          <mxGeometry relative="1" as="geometry" />
        </mxCell>
        <mxCell id="mWL99UG54gA_ehm_smPu-30" style="edgeStyle=orthogonalEdgeStyle;rounded=0;orthogonalLoop=1;jettySize=auto;html=1;exitX=1;exitY=0.25;exitDx=0;exitDy=0;" edge="1" parent="1" source="mWL99UG54gA_ehm_smPu-4" target="mWL99UG54gA_ehm_smPu-31">
          <mxGeometry relative="1" as="geometry">
            <mxPoint x="860" y="349.9999999999998" as="targetPoint" />
          </mxGeometry>
        </mxCell>
        <mxCell id="mWL99UG54gA_ehm_smPu-4" value="&lt;font style=&quot;font-size: 14px;&quot;&gt;Parede&lt;/font&gt;" style="rounded=0;whiteSpace=wrap;html=1;" vertex="1" parent="1">
          <mxGeometry x="500" y="210" width="120" height="60" as="geometry" />
        </mxCell>
        <mxCell id="mWL99UG54gA_ehm_smPu-54" style="edgeStyle=orthogonalEdgeStyle;rounded=0;orthogonalLoop=1;jettySize=auto;html=1;" edge="1" parent="1" source="mWL99UG54gA_ehm_smPu-16" target="mWL99UG54gA_ehm_smPu-55">
          <mxGeometry relative="1" as="geometry">
            <mxPoint x="420" y="459.9999999999998" as="targetPoint" />
          </mxGeometry>
        </mxCell>
        <mxCell id="mWL99UG54gA_ehm_smPu-16" value="&lt;font style=&quot;font-size: 14px;&quot;&gt;Pintura&lt;/font&gt;" style="rounded=0;whiteSpace=wrap;html=1;" vertex="1" parent="1">
          <mxGeometry x="360" y="350" width="120" height="60" as="geometry" />
        </mxCell>
        <mxCell id="mWL99UG54gA_ehm_smPu-60" style="edgeStyle=orthogonalEdgeStyle;rounded=0;orthogonalLoop=1;jettySize=auto;html=1;" edge="1" parent="1" source="mWL99UG54gA_ehm_smPu-18" target="mWL99UG54gA_ehm_smPu-61">
          <mxGeometry relative="1" as="geometry">
            <mxPoint x="560" y="449.9999999999998" as="targetPoint" />
          </mxGeometry>
        </mxCell>
        <mxCell id="mWL99UG54gA_ehm_smPu-18" value="&lt;font style=&quot;font-size: 14px;&quot;&gt;Espelhos Tomada&lt;/font&gt;" style="rounded=0;whiteSpace=wrap;html=1;" vertex="1" parent="1">
          <mxGeometry x="500" y="350" width="120" height="60" as="geometry" />
        </mxCell>
        <mxCell id="mWL99UG54gA_ehm_smPu-63" style="edgeStyle=orthogonalEdgeStyle;rounded=0;orthogonalLoop=1;jettySize=auto;html=1;entryX=0.5;entryY=0;entryDx=0;entryDy=0;" edge="1" parent="1" source="mWL99UG54gA_ehm_smPu-20" target="mWL99UG54gA_ehm_smPu-62">
          <mxGeometry relative="1" as="geometry" />
        </mxCell>
        <mxCell id="mWL99UG54gA_ehm_smPu-20" value="&lt;font style=&quot;font-size: 14px;&quot;&gt;Espelho Interruptor&lt;/font&gt;" style="rounded=0;whiteSpace=wrap;html=1;" vertex="1" parent="1">
          <mxGeometry x="650" y="350" width="120" height="60" as="geometry" />
        </mxCell>
        <mxCell id="mWL99UG54gA_ehm_smPu-31" value="&lt;font style=&quot;font-size: 14px;&quot;&gt;Portas de alumínio&amp;nbsp;&lt;/font&gt;" style="rounded=0;whiteSpace=wrap;html=1;align=center;" vertex="1" parent="1">
          <mxGeometry x="800" y="349.9999999999998" width="120" height="60" as="geometry" />
        </mxCell>
        <mxCell id="mWL99UG54gA_ehm_smPu-33" value="&lt;font style=&quot;font-size: 14px;&quot;&gt;Pintura&lt;/font&gt;" style="rounded=0;whiteSpace=wrap;html=1;" vertex="1" parent="1">
          <mxGeometry x="1080" y="350" width="120" height="60" as="geometry" />
        </mxCell>
        <mxCell id="mWL99UG54gA_ehm_smPu-35" value="&lt;font style=&quot;font-size: 14px;&quot;&gt;Iluminação&lt;/font&gt;" style="rounded=0;whiteSpace=wrap;html=1;" vertex="1" parent="1">
          <mxGeometry x="1230" y="350" width="120" height="60" as="geometry" />
        </mxCell>
        <mxCell id="mWL99UG54gA_ehm_smPu-36" style="edgeStyle=orthogonalEdgeStyle;rounded=0;orthogonalLoop=1;jettySize=auto;html=1;entryX=0.571;entryY=-0.037;entryDx=0;entryDy=0;entryPerimeter=0;" edge="1" parent="1" source="mWL99UG54gA_ehm_smPu-1" target="mWL99UG54gA_ehm_smPu-2">
          <mxGeometry relative="1" as="geometry" />
        </mxCell>
        <mxCell id="mWL99UG54gA_ehm_smPu-38" value="&lt;font style=&quot;font-size: 14px;&quot;&gt;Piso Vinílico&lt;/font&gt;" style="rounded=0;whiteSpace=wrap;html=1;" vertex="1" parent="1">
          <mxGeometry x="1519.9999999999995" y="349.9999999999998" width="120" height="60" as="geometry" />
        </mxCell>
        <mxCell id="mWL99UG54gA_ehm_smPu-56" style="edgeStyle=orthogonalEdgeStyle;rounded=0;orthogonalLoop=1;jettySize=auto;html=1;" edge="1" parent="1" source="mWL99UG54gA_ehm_smPu-55" target="mWL99UG54gA_ehm_smPu-57">
          <mxGeometry relative="1" as="geometry">
            <mxPoint x="420" y="549.9999999999998" as="targetPoint" />
          </mxGeometry>
        </mxCell>
        <mxCell id="mWL99UG54gA_ehm_smPu-55" value="&lt;font style=&quot;font-size: 14px;&quot;&gt;Parede Lixada&lt;/font&gt;" style="rounded=0;whiteSpace=wrap;html=1;" vertex="1" parent="1">
          <mxGeometry x="360" y="449.9999999999998" width="120" height="60" as="geometry" />
        </mxCell>
        <mxCell id="mWL99UG54gA_ehm_smPu-58" style="edgeStyle=orthogonalEdgeStyle;rounded=0;orthogonalLoop=1;jettySize=auto;html=1;" edge="1" parent="1" source="mWL99UG54gA_ehm_smPu-57" target="mWL99UG54gA_ehm_smPu-59">
          <mxGeometry relative="1" as="geometry">
            <mxPoint x="420" y="649.9999999999998" as="targetPoint" />
          </mxGeometry>
        </mxCell>
        <mxCell id="mWL99UG54gA_ehm_smPu-57" value="&lt;font style=&quot;font-size: 14px;&quot;&gt;Parede Emassada&amp;nbsp;&lt;/font&gt;" style="rounded=0;whiteSpace=wrap;html=1;" vertex="1" parent="1">
          <mxGeometry x="360" y="549.9999999999998" width="120" height="60" as="geometry" />
        </mxCell>
        <mxCell id="mWL99UG54gA_ehm_smPu-59" value="&lt;font style=&quot;font-size: 14px;&quot;&gt;Parede Pintada&lt;/font&gt;" style="rounded=0;whiteSpace=wrap;html=1;" vertex="1" parent="1">
          <mxGeometry x="360" y="639.9999999999998" width="120" height="60" as="geometry" />
        </mxCell>
        <mxCell id="mWL99UG54gA_ehm_smPu-61" value="&lt;font style=&quot;font-size: 14px;&quot;&gt;Espelho Colocado&lt;/font&gt;" style="rounded=0;whiteSpace=wrap;html=1;" vertex="1" parent="1">
          <mxGeometry x="500" y="449.9999999999998" width="120" height="60" as="geometry" />
        </mxCell>
        <mxCell id="mWL99UG54gA_ehm_smPu-62" value="&lt;font style=&quot;font-size: 14px;&quot;&gt;Espelho Colocado&lt;/font&gt;" style="rounded=0;whiteSpace=wrap;html=1;" vertex="1" parent="1">
          <mxGeometry x="650" y="449.9999999999998" width="120" height="60" as="geometry" />
        </mxCell>
      </root>
    </mxGraphModel>
  </diagram>
</mxfile>
